<?xml version="1.0" standalone="no"?>
<!DOCTYPE svg PUBLIC "-//W3C//DTD SVG 20010904//EN"
 "http://www.w3.org/TR/2001/REC-SVG-20010904/DTD/svg10.dtd">
<svg version="1.0" xmlns="http://www.w3.org/2000/svg"
 width="1280.000000pt" height="958.000000pt" viewBox="0 0 1280.000000 958.000000"
 preserveAspectRatio="xMidYMid meet">
<metadata>
Created by potrace 1.16, written by Peter Selinger 2001-2019
</metadata>
<g transform="translate(0.000000,958.000000) scale(0.100000,-0.100000)"
fill="#000000" stroke="none">
<path d="M496 9433 c-11 -27 -197 -353 -203 -353 -2 0 -1 5 2 10 3 6 2 10 -2
10 -5 0 -14 -10 -22 -21 -11 -19 -11 -21 4 -15 13 5 9 -8 -15 -51 -32 -57 -64
-101 -40 -55 6 13 10 26 7 28 -2 2 -28 -40 -57 -93 -30 -54 -61 -109 -71 -123
-9 -14 -19 -36 -23 -50 -4 -17 0 -13 14 13 24 44 38 51 15 7 -8 -16 -15 -31
-15 -35 0 -9 1118 -6 1125 4 3 6 14 8 25 6 11 -2 23 1 26 7 5 7 0 9 -14 6 -12
-4 -22 -2 -22 3 0 5 11 9 25 9 18 0 25 -5 25 -20 0 -19 7 -20 138 -20 97 0
142 4 151 13 11 10 12 9 6 -2 -5 -9 -4 -12 3 -7 20 12 52 15 52 5 0 -5 68 -9
165 -9 158 0 165 1 165 20 0 18 7 20 63 20 37 0 68 -5 75 -12 10 -10 111 -13
435 -13 232 0 440 3 461 7 23 4 35 4 30 -2 -5 -4 -22 -10 -39 -13 l-30 -4 31
-2 c23 -1 38 7 60 31 21 24 23 28 5 13 -24 -20 -24 -20 -17 0 22 57 25 99 25
352 1 301 -3 326 -57 340 -36 10 -859 10 -895 0 -21 -6 -27 -5 -21 4 4 8 3 9
-4 5 -6 -4 -9 -13 -5 -21 4 -12 -6 -15 -56 -15 -55 0 -61 2 -61 20 0 20 -5 21
-165 20 -91 -1 -167 -6 -171 -11 -3 -5 0 -9 6 -9 6 0 8 -4 5 -10 -11 -18 -35
-11 -35 10 0 20 -7 20 -549 20 -507 0 -549 -1 -555 -17z m1064 -130 l5 -103
59 105 60 105 113 0 113 0 0 -330 0 -330 -115 0 -115 0 0 127 0 128 -72 -128
-72 -127 -103 0 -103 0 0 115 c0 63 -3 115 -7 115 -5 0 -37 -52 -72 -115 l-65
-115 -118 0 c-65 0 -118 2 -118 5 0 7 318 571 357 633 13 22 18 23 131 20
l117 -3 5 -102z m-839 15 c-27 -46 -110 -192 -185 -325 l-137 -243 -115 0
-116 0 39 68 c21 38 103 184 183 325 l145 257 117 0 117 0 -48 -82z m2280 65
c13 -13 14 -51 11 -428 -1 -115 -4 -155 -16 -170 -14 -19 -28 -20 -413 -23
-219 -2 -413 0 -430 3 l-33 6 0 84 0 85 124 0 c122 0 125 -1 128 -22 3 -23 3
-23 198 -23 l195 0 3 52 3 53 -198 2 -198 3 0 63 0 63 195 2 195 2 3 59 c2 41
-1 62 -10 67 -7 5 -92 9 -188 9 -182 0 -200 -4 -200 -42 0 -16 -11 -18 -125
-18 l-125 0 0 89 0 90 28 4 c15 3 210 4 434 3 308 -1 410 -4 419 -13z"/>
<path d="M8520 7051 c-58 -18 -136 -68 -206 -134 l-32 -29 -145 11 c-80 6
-292 11 -471 11 -305 0 -328 1 -358 19 -17 11 -35 18 -40 15 -4 -3 -27 6 -50
19 -41 23 -50 24 -168 21 -69 -3 -135 -7 -147 -9 -21 -5 -21 -7 -7 -40 7 -19
14 -37 14 -40 0 -3 -22 -5 -50 -5 -41 0 -62 8 -123 45 l-75 45 -108 -1 c-60
-1 -122 -4 -139 -8 -16 -4 31 -5 107 -3 l136 5 78 -48 c74 -44 80 -46 141 -43
35 2 63 0 63 -4 0 -3 -27 -8 -61 -10 -57 -3 -64 0 -137 44 l-77 47 -96 1 c-53
0 -117 -3 -143 -6 -42 -6 -46 -9 -40 -28 17 -54 17 -52 4 -36 -10 13 -11 12
-6 -3 3 -10 6 -21 6 -23 0 -3 5 -2 10 1 6 3 10 1 10 -4 0 -6 -18 -11 -39 -11
-22 0 -73 -4 -113 -9 -40 -5 -125 -14 -188 -20 -244 -24 -286 -31 -419 -77 -8
-2 -11 -7 -9 -10 3 -3 21 1 40 9 63 27 163 47 278 57 63 5 178 16 255 25 77 8
156 14 175 14 19 -1 1 -5 -40 -10 -132 -14 -373 -40 -425 -45 -135 -12 -213
-34 -344 -95 -107 -50 -118 -49 -21 1 41 21 72 39 67 40 -17 1 -147 -71 -142
-79 5 -9 -84 -65 -91 -58 -2 2 14 14 37 26 22 13 38 25 35 28 -7 7 -81 -46
-81 -59 0 -6 -6 -13 -14 -16 -9 -3 -11 0 -6 8 18 29 -184 -118 -335 -244 -98
-82 -530 -505 -530 -519 0 -5 8 -3 18 4 9 7 -3 -8 -28 -34 -24 -26 -46 -47
-49 -47 -3 0 10 16 29 35 19 19 30 35 24 34 -5 0 -37 -34 -71 -74 -43 -50 -74
-77 -99 -85 -19 -7 -33 -14 -31 -17 3 -2 22 3 42 12 21 8 40 13 42 11 6 -6
-99 -44 -181 -66 -39 -10 -129 -23 -201 -29 -621 -54 -1346 -178 -2090 -358
-175 -42 -274 -77 -290 -103 -3 -5 -11 -10 -18 -10 -6 0 5 12 26 27 20 14 35
28 33 31 -7 6 -96 -68 -96 -80 0 -6 8 -4 17 3 16 13 17 12 4 -3 -7 -10 -17
-15 -22 -13 -4 3 -15 -8 -24 -24 -17 -35 -19 -45 -5 -36 5 3 10 1 10 -5 0 -7
-9 -14 -20 -17 -11 -3 -20 -10 -20 -15 0 -5 3 -7 8 -5 4 3 7 -64 7 -148 0 -84
3 -149 6 -144 6 10 33 -91 34 -124 0 -10 12 -28 25 -39 14 -11 19 -17 13 -13
-17 8 -16 -3 1 -21 9 -8 16 -10 19 -4 3 6 4 5 2 -2 -1 -7 -8 -12 -15 -10 -6 1
-14 -6 -17 -17 -6 -23 -11 -25 -103 -42 -35 -7 -59 -14 -52 -17 6 -2 44 4 83
13 39 9 74 14 76 11 3 -2 -31 -12 -74 -21 -168 -35 -178 -38 -205 -66 l-28
-27 0 -151 c0 -82 5 -162 11 -178 8 -23 8 -26 -3 -15 -9 9 -14 58 -16 176 l-3
163 26 31 c16 19 45 38 73 46 26 8 39 15 30 15 -30 2 -72 -19 -105 -52 l-33
-31 0 -157 c0 -157 9 -209 35 -209 26 0 211 -63 223 -76 7 -9 8 -10 0 -4 -7 6
-19 10 -27 10 -13 -1 -13 -2 2 -11 9 -5 17 -18 17 -27 0 -14 2 -14 9 -3 11 17
17 0 26 -79 9 -70 -2 -62 -14 11 -8 51 -9 50 -6 -28 3 -77 2 -82 -23 -105
l-27 -23 24 28 c14 15 21 27 17 27 -5 0 -18 -12 -30 -27 -11 -15 -49 -60 -83
-100 -62 -70 -80 -99 -45 -72 15 13 16 12 3 -3 -7 -10 -17 -15 -22 -13 -10 7
-39 -47 -39 -73 0 -11 6 -24 12 -30 25 -19 351 -126 473 -155 18 -4 18 -5 1
-6 -23 -1 -201 50 -326 94 -137 48 -138 48 -110 32 28 -17 201 -76 300 -103
36 -9 70 -20 75 -25 6 -4 30 -6 54 -5 35 2 223 -29 200 -33 -4 -1 -81 -23
-172 -51 -92 -27 -185 -54 -208 -60 -23 -7 -38 -15 -33 -20 5 -5 70 -33 144
-64 864 -350 2071 -542 3142 -498 294 12 386 19 858 66 140 14 397 39 570 56
448 43 481 48 615 80 240 57 431 133 478 190 21 25 40 32 124 50 565 120 1237
257 1643 334 313 59 831 150 915 161 49 6 -434 -117 -2230 -570 -495 -124
-1003 -253 -1130 -285 -126 -32 -707 -179 -1290 -326 -1342 -337 -2374 -597
-3590 -904 -528 -133 -1151 -291 -1385 -349 l-425 -108 -3 -411 -2 -412 5038
0 c4017 0 5041 3 5051 13 11 10 12 9 6 -2 -5 -9 -4 -12 3 -7 7 4 17 17 24 29
11 21 10 21 -8 7 -18 -14 -18 -14 -5 3 7 9 20 17 27 17 8 0 14 5 14 11 0 5 -6
7 -12 3 -9 -5 -9 -3 1 9 7 9 17 15 21 12 4 -3 19 13 34 35 29 44 32 55 14 44
-9 -5 -9 -2 1 9 7 9 20 17 27 17 8 0 14 5 14 11 0 5 -6 7 -12 3 -9 -5 -9 -3 1
9 7 9 17 15 21 12 5 -3 12 0 16 6 4 8 3 9 -4 5 -18 -11 -14 6 9 34 l20 25 -11
-25 -11 -25 20 25 c11 14 16 27 10 28 -12 5 9 32 25 32 10 0 39 37 82 105 19
30 18 30 -1 15 -19 -14 -19 -14 -6 2 7 10 19 18 25 18 6 0 28 25 49 55 21 30
33 55 26 55 -8 0 -8 4 1 15 7 8 18 15 24 15 6 0 28 25 49 55 21 30 33 55 26
55 -15 0 9 30 25 30 11 0 66 71 66 86 0 4 -14 -12 -30 -34 -17 -23 -32 -42
-35 -42 -13 0 61 90 74 91 11 0 12 2 4 6 -8 3 6 23 37 53 28 27 50 54 50 61 0
7 -14 -6 -31 -29 -17 -23 -33 -42 -35 -42 -14 0 62 90 75 91 10 0 12 2 4 6 -8
3 6 23 37 53 28 27 50 54 50 61 0 7 -14 -7 -30 -29 -17 -23 -32 -42 -35 -42
-2 0 10 20 27 45 18 25 39 45 47 45 13 0 13 2 2 9 -10 7 -9 11 7 22 10 8 21
19 23 24 2 6 7 9 11 8 4 -2 21 17 38 42 19 28 26 45 18 45 -7 1 -3 9 10 20 13
10 24 23 25 27 1 4 5 7 9 6 4 -2 21 17 38 42 19 28 26 45 18 45 -7 1 -3 9 10
20 13 10 24 23 25 27 1 4 5 7 9 6 4 -2 21 17 38 42 19 28 26 45 18 45 -8 1 -4
8 9 19 12 10 19 21 16 24 -3 4 6 11 21 16 14 6 26 16 26 23 0 9 -3 9 -10 -2
-5 -8 -11 -12 -14 -10 -2 3 7 19 20 35 18 21 23 24 19 10 -6 -18 -5 -18 5 -2
6 9 9 21 6 26 -3 5 2 15 12 22 16 13 16 13 2 -6 -14 -19 -14 -19 3 -6 10 8 16
20 13 27 -3 7 0 16 6 20 7 5 8 2 3 -7 -8 -12 -6 -12 9 0 13 11 14 16 4 22 -12
8 -4 13 15 10 5 -1 6 2 3 7 -3 5 1 18 9 28 15 18 15 18 8 -1 -6 -19 52 56 78
100 11 19 11 19 -6 5 -14 -11 -12 -6 5 17 27 37 32 41 23 16 -8 -24 -1 -15 27
31 14 24 18 36 9 31 -12 -8 -12 -6 -1 8 8 9 19 15 24 14 6 -1 13 4 16 12 3 8
0 11 -7 7 -17 -11 -13 0 6 15 15 12 16 12 9 -1 -7 -11 -4 -10 9 2 10 9 19 27
20 40 1 13 7 22 13 21 5 -1 16 4 22 12 10 12 10 15 0 15 -13 0 -5 15 8 15 13
0 32 16 32 27 0 6 -7 5 -17 -3 -16 -13 -17 -12 -4 3 7 10 17 15 22 13 10 -7
30 29 27 47 -2 7 2 12 9 11 6 -1 17 4 23 12 10 12 10 15 0 15 -13 0 -5 15 8
15 13 0 32 16 32 27 0 6 -7 5 -17 -3 -16 -13 -17 -12 -4 3 7 10 17 15 22 13
10 -7 30 29 27 47 -2 7 2 12 9 11 6 -1 17 4 23 12 9 11 10 15 1 15 -7 0 -9 5
-6 10 4 6 10 8 15 5 12 -7 64 71 56 84 -4 5 -1 13 5 17 8 5 9 3 4 -7 -5 -8 1
-5 13 5 23 20 30 32 12 21 -16 -10 -12 5 11 36 11 16 24 27 29 24 11 -7 33 32
25 45 -3 5 0 12 6 16 8 5 9 3 4 -7 -5 -8 1 -5 13 5 26 22 30 45 5 25 -9 -8 -4
3 11 23 16 21 32 36 36 33 5 -3 11 -1 15 5 3 5 1 10 -5 10 -6 0 -8 5 -5 10 4
6 10 8 15 5 4 -3 11 2 14 11 3 8 2 12 -4 9 -6 -3 -10 -4 -10 0 0 3 11 10 25
15 14 5 25 15 25 21 0 8 -6 7 -17 -2 -9 -8 -4 3 11 24 31 41 38 46 30 20 -5
-15 -4 -16 5 -3 21 28 43 72 32 66 -6 -4 -11 -5 -11 -1 0 3 11 10 25 15 14 5
25 15 25 21 0 8 -5 7 -17 -2 -9 -8 1 10 21 39 21 28 40 52 43 52 6 0 -6 -21
-25 -42 -8 -10 -11 -18 -6 -18 5 0 19 16 32 35 24 38 28 50 12 40 -5 -3 -10
-4 -10 0 0 3 11 10 25 15 14 5 25 15 25 21 0 8 -6 7 -17 -2 -13 -11 -15 -11
-9 -1 4 7 19 17 32 22 13 5 24 15 24 21 0 8 -6 7 -17 -2 -16 -13 -17 -12 -5 3
8 10 19 16 24 15 6 -1 13 4 16 12 3 9 0 11 -9 6 -8 -5 -11 -4 -6 1 5 5 14 9
20 9 5 0 12 6 15 14 3 8 0 11 -7 7 -6 -4 -11 -5 -11 -1 0 3 11 10 25 15 14 5
25 15 25 21 0 8 -6 7 -17 -2 -16 -13 -17 -12 -4 4 7 9 19 17 27 17 7 0 16 5
20 12 5 8 2 9 -10 5 -15 -6 -14 -2 4 23 12 16 26 29 32 27 6 -1 13 4 16 12 3
8 0 11 -7 7 -6 -4 -11 -5 -11 -1 0 3 11 10 25 15 14 5 25 15 25 21 0 8 -4 8
-15 -1 -8 -7 -15 -10 -15 -6 0 3 15 16 33 27 17 12 23 18 13 15 -16 -5 -17 -4
-6 8 6 9 17 14 22 13 6 -1 13 4 16 12 3 9 0 11 -9 6 -8 -5 -11 -4 -6 1 5 5 14
9 20 9 5 0 12 6 15 14 3 9 0 11 -8 6 -9 -5 -11 -4 -6 3 4 7 13 12 21 12 7 0
16 7 19 16 6 15 4 15 -11 3 -16 -13 -17 -12 -4 4 7 9 19 17 26 17 7 0 24 18
39 40 28 43 32 55 14 44 -7 -4 -8 -3 -4 4 4 7 13 12 21 12 7 0 16 7 19 16 6
15 4 15 -11 3 -16 -13 -17 -12 -4 4 7 9 20 17 27 17 8 0 14 5 14 11 0 5 -5 7
-11 3 -6 -3 -3 5 6 20 19 29 30 35 21 10 -3 -8 -2 -13 3 -10 5 4 10 69 10 145
l2 140 -993 -250 c-746 -188 -997 -248 -1010 -240 -9 5 -56 15 -105 22 -48 6
-92 15 -96 19 -5 4 1 26 12 48 29 58 66 189 87 316 13 77 21 102 25 85 l7 -24
1 26 c1 21 14 35 66 69 35 23 63 47 62 52 -1 6 4 13 12 16 9 3 11 0 6 -8 -5
-8 4 -5 18 6 15 10 27 23 27 28 0 5 -10 1 -22 -10 l-21 -19 18 27 c11 18 15
37 11 54 -4 16 -3 23 3 19 6 -3 9 8 7 29 -1 20 2 34 8 33 6 -1 11 8 10 20 0
12 3 20 7 17 10 -6 83 136 75 144 -3 3 -6 1 -6 -4 0 -6 -6 -19 -14 -30 -10
-13 -8 0 5 39 17 51 18 68 9 140 -7 56 -17 91 -31 111 -12 16 -18 26 -13 23 5
-3 10 25 10 61 l2 67 -13 -60 c-16 -75 -19 -40 -4 41 6 32 15 127 19 209 l9
150 -3 -165 c-2 -99 0 -147 5 -120 4 25 8 99 8 166 1 113 0 122 -21 140 -22
19 -23 19 -8 -1 15 -20 14 -20 -8 -1 -23 20 -30 32 -12 21 12 -7 12 30 -1 65
-7 20 -8 18 -4 -14 5 -45 -3 -42 -14 6 -5 18 -11 44 -15 58 l-7 25 15 -25 c21
-34 19 -13 -2 30 -9 19 -22 35 -29 35 -6 0 -15 4 -20 9 -5 5 -3 6 5 2 8 -5 12
0 12 16 0 17 -2 20 -9 9 -7 -11 -12 -3 -21 30 -6 24 -22 85 -36 134 -23 85
-32 150 -14 95 9 -24 9 -24 7 5 -1 17 -7 29 -14 28 -7 -2 -10 3 -7 11 3 8 -13
32 -38 56 l-43 42 -216 -5 -217 -6 -48 62 c-79 101 -236 272 -246 269 -5 -1
-7 2 -4 7 7 11 -154 167 -268 258 -149 120 -237 164 -411 208 -38 10 -110 28
-160 41 -49 13 -99 24 -110 24 -21 -1 255 -75 335 -91 61 -12 211 -88 285
-144 85 -64 194 -158 194 -169 1 -4 -25 16 -57 46 -138 127 -296 225 -408 252
-33 7 -111 28 -174 45 -216 58 -505 106 -760 127 -129 10 -132 13 -68 61 82
62 100 73 141 84 21 6 37 16 37 25 0 38 -143 -34 -241 -123 l-37 -34 -164 11
c-89 5 -301 10 -470 10 -294 0 -308 1 -342 21 -20 12 -36 23 -36 26 0 3 16 -4
36 -16 34 -20 48 -21 354 -21 175 0 387 -5 470 -11 l151 -10 41 36 c57 52 155
113 200 125 21 6 38 13 38 15 0 6 -9 5 -40 -4z m-480 -191 c496 -22 920 -80
1229 -170 57 -16 110 -30 118 -30 32 0 182 -80 259 -137 199 -149 452 -418
684 -730 l75 -101 70 -16 c39 -10 134 -31 212 -49 l142 -31 9 -38 c10 -37 5
-47 -13 -29 -12 11 -204 27 -431 37 l-160 7 -2 34 c-9 133 -192 409 -519 780
-210 239 -252 257 -724 322 -235 33 -769 91 -832 91 -66 0 -112 -17 -145 -53
-18 -18 -63 -161 -183 -568 -88 -299 -169 -574 -180 -611 -14 -47 -25 -68 -36
-68 -8 0 -55 16 -102 35 -284 113 -698 167 -1386 181 -406 9 -1129 -17 -1570
-56 -175 -16 -169 -23 -74 82 411 453 793 773 1103 923 118 57 251 95 326 94
39 -1 34 -3 -35 -15 -148 -26 -194 -43 -297 -105 -388 -234 -759 -542 -1030
-855 -49 -56 -88 -103 -88 -105 0 -2 118 3 263 12 553 35 835 44 1367 44 606
0 703 -6 920 -58 237 -56 410 -42 502 41 51 46 59 63 128 261 32 92 99 283
150 426 51 145 92 277 92 298 1 49 -25 85 -82 115 -43 22 -51 22 -380 22 -184
0 -427 -5 -540 -10 -113 -5 -259 -11 -325 -14 -119 -5 -119 -5 35 9 136 11
495 31 720 38 199 7 527 6 730 -3z m-287 -53 c72 -47 76 -111 17 -281 -75
-217 -307 -742 -333 -752 -8 -3 -38 11 -68 31 -70 46 -182 89 -289 111 -100
20 -322 15 -436 -10 -102 -22 -257 -73 -343 -112 -73 -34 -76 -34 -215 -34
-284 0 -1037 -30 -1478 -58 -60 -4 -108 -5 -108 -3 0 10 105 127 220 244 243
250 559 498 871 685 110 66 117 68 283 97 281 49 703 82 1216 95 472 12 630 9
663 -13z m1229 -188 c33 -18 110 -209 202 -500 55 -176 156 -536 156 -557 0
-8 -22 -12 -65 -12 l-64 0 -10 38 c-5 20 -22 84 -36 142 -81 326 -185 661
-270 872 -5 13 0 17 22 21 15 2 32 5 36 6 5 0 17 -4 29 -10z m-223 -104 c32
-8 80 -60 102 -111 10 -22 61 -182 114 -355 52 -173 98 -322 101 -332 5 -15 1
-18 -23 -15 -28 3 -30 8 -148 357 -134 394 -137 400 -228 425 -29 8 -173 33
-322 56 -148 23 -273 44 -277 47 -4 2 -5 9 -2 16 3 10 81 2 332 -35 180 -26
338 -50 351 -53z m556 60 c86 -23 156 -57 223 -109 97 -74 257 -274 455 -567
101 -150 118 -192 103 -255 l-7 -27 -297 6 c-163 4 -318 7 -343 7 l-46 0 -17
83 c-39 187 -128 455 -233 707 -36 85 -68 161 -71 169 -4 12 9 13 84 8 49 -3
116 -13 149 -22z m-812 -231 c-36 -52 -71 -98 -78 -100 -7 -3 -32 -4 -55 -2
l-42 3 68 86 c68 86 91 101 161 108 6 0 -18 -42 -54 -95z m250 78 c9 -10 70
-176 136 -368 l119 -350 -104 -12 c-58 -7 -109 -10 -114 -7 -24 15 -52 145
-59 276 -10 150 -19 180 -76 227 -42 34 -95 52 -154 52 -22 0 -41 3 -41 6 0
16 124 183 138 187 9 3 44 5 78 6 47 1 65 -3 77 -17z m-310 -4 c-115 -150
-148 -184 -202 -209 -65 -30 -136 -102 -170 -172 -13 -26 -33 -52 -44 -58 -37
-19 -77 -62 -112 -119 -27 -45 -95 -113 -95 -96 0 7 177 578 189 609 9 23 16
27 53 28 45 1 380 25 387 28 2 0 -1 -5 -6 -11z m-278 -489 c59 -54 100 -137
92 -186 -8 -49 -40 -80 -115 -115 -76 -35 -233 -88 -258 -88 -11 0 -28 16 -41
38 -12 20 -34 56 -48 79 l-26 42 65 48 c35 26 72 63 82 82 50 92 108 141 167
141 30 0 46 -8 82 -41z m2572 -71 c24 -26 37 -55 56 -133 14 -55 25 -101 23
-103 -2 -1 -58 8 -125 20 l-122 23 6 43 c3 24 12 65 19 92 l13 50 -152 0
c-125 0 -154 3 -159 15 -4 12 15 15 122 18 70 1 163 4 208 5 79 2 81 1 111
-30z m-4287 -168 c453 -24 794 -75 1007 -152 46 -16 83 -31 83 -31 0 -1 -125
-3 -278 -4 -393 -2 -797 -40 -1248 -118 -553 -95 -1275 -274 -1372 -339 -41
-27 -84 -76 -94 -107 -3 -8 -16 -8 -43 0 -74 19 -856 51 -1277 51 -132 0 -238
4 -238 9 0 19 131 130 172 145 38 14 601 117 2058 377 223 40 407 74 409 76
21 16 -72 3 -480 -71 -2093 -377 -1960 -352 -2001 -369 -45 -19 -137 -93 -156
-126 -17 -30 37 -28 -427 -15 l-220 6 35 30 c110 94 415 200 434 152 8 -22 7
-23 -53 -39 -43 -11 -51 -11 -51 1 0 7 9 18 21 24 11 7 18 14 15 18 -8 8 -56
-38 -56 -54 0 -51 169 -44 228 9 31 29 28 55 -9 71 -31 13 -31 13 45 25 42 6
91 11 109 11 18 0 39 5 47 10 23 15 -34 13 -159 -6 -261 -38 -499 -128 -604
-229 l-47 -44 -192 10 c-172 9 -511 4 -530 -8 -19 -11 -5 20 24 52 42 49 86
70 225 105 670 173 1511 320 2133 375 169 14 257 32 371 74 161 59 1526 111
2119 81z m2691 -37 l6 -33 -56 -1 c-31 0 -153 -4 -271 -8 -118 -4 -216 -7
-218 -5 -6 4 99 32 183 49 120 24 202 33 280 31 l69 -1 7 -32z m1204 -103
c345 -14 460 -24 490 -44 14 -9 34 -34 45 -56 22 -43 42 -130 31 -130 -14 0
-954 -50 -1120 -60 -95 -5 -195 -10 -221 -10 l-49 0 -15 54 c-24 83 -50 136
-90 189 l-36 47 28 1 c15 1 146 5 292 8 146 4 292 8 325 9 33 1 177 -3 320 -8z
m-988 -18 c34 -5 122 -167 138 -255 l7 -37 -36 0 c-33 0 -36 2 -36 30 0 16 -5
41 -12 55 -12 27 -12 27 -92 20 -45 -4 -83 -9 -85 -11 -2 -2 1 -9 6 -16 6 -7
12 -27 15 -45 4 -32 4 -32 -46 -37 -28 -3 -109 -8 -181 -11 -71 -4 -263 -15
-426 -26 -163 -11 -361 -21 -440 -23 -79 -2 -155 -8 -169 -14 -14 -5 -76 -11
-139 -13 l-114 -4 -18 90 c-17 87 -46 182 -68 223 -10 18 -6 19 72 25 356 27
1536 62 1624 49z m-1795 -48 l67 -7 29 -66 c28 -62 52 -148 66 -233 l7 -36
-73 -6 c-40 -3 -158 -8 -263 -11 -292 -9 -803 -48 -1185 -91 -506 -56 -1256
-162 -1305 -184 l-20 -9 20 0 c11 -1 58 6 105 14 140 24 618 92 880 124 588
73 1115 117 1656 137 l182 6 6 -58 c21 -209 13 -637 -14 -708 -6 -17 -37 -25
-201 -57 -107 -20 -196 -35 -198 -33 -3 3 -13 37 -23 77 -49 192 -165 350
-314 425 -100 51 -288 68 -404 37 -177 -47 -382 -220 -547 -462 -31 -46 -64
-85 -72 -87 -58 -18 -720 -46 -1077 -46 l-232 0 -6 24 c-3 13 -9 31 -12 40 -5
13 2 16 42 16 72 0 116 26 134 77 13 40 13 48 -19 155 -49 168 -107 310 -139
340 -15 14 -42 33 -59 42 -18 9 -33 20 -33 24 0 15 49 74 81 98 50 37 247 96
629 188 611 148 1183 236 1745 269 103 7 482 7 547 1z m3392 -240 c8 -22 7
-125 -4 -219 -5 -44 -12 -112 -16 -152 -8 -83 -3 -80 -149 -114 -84 -20 -90
-20 -100 -4 -86 147 -129 186 -208 192 -45 4 -59 0 -99 -26 -57 -36 -134 -137
-185 -243 -28 -58 -43 -77 -58 -78 -11 0 -155 -11 -319 -25 -165 -14 -302 -25
-306 -25 -3 0 -1 33 6 73 27 155 38 358 25 482 -6 65 -10 119 -9 121 2 1 219
8 483 14 264 6 505 12 535 14 30 1 132 3 226 4 149 2 173 0 178 -14z m-1440
-66 c19 -180 15 -352 -16 -551 -10 -65 -15 -78 -32 -82 -40 -8 -1721 -204
-1724 -201 -1 2 3 55 9 117 14 131 18 493 6 590 l-7 67 52 5 c29 4 87 9 129
13 l76 6 8 -131 7 -131 27 0 c15 0 31 8 39 20 16 25 48 26 62 1 16 -31 13
-146 -5 -161 -20 -16 -43 -6 -55 25 -7 19 -17 25 -41 25 -31 0 -31 -1 -26 -36
8 -49 31 -82 73 -102 31 -15 38 -15 61 -2 45 26 65 63 70 132 7 83 -11 169
-43 203 -20 22 -32 26 -64 23 -37 -3 -38 -2 -44 31 -3 19 -3 38 0 43 3 4 34 8
70 8 l64 0 0 33 0 34 103 6 c56 4 201 13 322 21 204 14 589 34 826 44 l47 2 6
-52z m-7788 -233 c37 -25 67 -112 72 -205 5 -94 -7 -154 -39 -194 -63 -80
-149 48 -149 220 0 85 14 139 45 170 28 28 42 30 71 9z m288 -16 c82 -97 70
-366 -18 -425 -70 -45 -138 64 -139 221 -1 177 85 289 157 204z m1941 -63 c18
-14 46 -52 62 -83 71 -145 3 -355 -122 -379 -52 -9 -84 3 -131 49 -115 116
-89 360 46 430 45 23 100 17 145 -17z m550 -20 c131 -100 115 -378 -27 -452
-60 -31 -132 -8 -180 58 -41 55 -53 98 -52 183 0 66 5 89 26 130 59 113 150
144 233 81z m5996 -70 c100 -68 172 -329 167 -606 l-2 -115 -6 125 -5 125 -43
-45 c-68 -71 -77 -93 -77 -195 0 -87 38 -285 55 -285 9 0 37 96 55 185 7 39
13 59 14 45 2 -83 -67 -292 -120 -358 -109 -139 -233 -43 -303 234 -9 34 -16
70 -16 80 1 11 12 -23 25 -75 14 -52 29 -99 34 -104 17 -17 62 181 63 279 1
60 -3 79 -27 123 -16 29 -46 68 -68 87 l-39 36 6 66 c23 225 125 422 219 422
18 0 48 -11 68 -24z m479 -60 l0 -32 -115 -28 c-63 -15 -113 -32 -110 -36 3
-4 56 5 117 21 62 16 114 29 116 29 1 0 2 -26 2 -59 0 -51 -7 -73 -60 -181
-54 -108 -60 -126 -51 -152 6 -16 8 -35 5 -43 -6 -16 -163 -119 -170 -112 -3
2 1 57 7 122 9 91 8 149 -2 263 -7 81 -13 162 -13 180 l-1 34 114 28 c62 16
116 32 120 35 11 12 41 -38 41 -69z m-4167 -91 c120 -31 213 -104 297 -232
230 -350 240 -930 23 -1303 -51 -87 -164 -200 -233 -233 -77 -38 -167 -52
-235 -39 -90 18 -145 51 -227 133 -67 67 -85 94 -137 201 -70 141 -103 258
-121 427 -53 482 159 966 459 1047 62 17 106 17 174 -1z m3345 -47 c-3 -9 -93
-21 -299 -40 -162 -14 -352 -34 -424 -43 -117 -15 -1045 -139 -1500 -200 -566
-77 -585 -79 -597 -67 -6 6 -10 14 -7 16 16 15 454 85 764 122 1068 128 1422
168 1721 193 181 16 333 29 337 30 5 0 7 -5 5 -11z m2 -39 c0 -18 -121 -434
-128 -440 -4 -4 -126 -14 -272 -23 -146 -9 -284 -19 -307 -22 l-42 -6 29 68
c37 89 60 204 60 297 l0 74 123 12 c573 57 537 54 537 40z m-680 -116 c0 -107
-47 -307 -83 -357 -10 -14 -61 -26 -243 -56 -202 -34 -918 -155 -1324 -224
-79 -14 -146 -24 -147 -22 -1 1 7 26 18 55 33 87 50 189 54 316 l4 119 823
112 c453 62 840 112 861 113 l37 1 0 -57z m-7773 -84 c287 -58 941 -110 1763
-139 151 -5 428 -15 615 -22 448 -16 1660 -17 1775 -1 49 7 89 8 94 3 5 -6 -8
-61 -32 -137 -40 -123 -87 -301 -94 -353 -3 -23 -8 -25 -73 -32 -172 -17 -459
-29 -688 -28 -137 1 -251 -1 -254 -3 -23 -23 567 -18 852 7 83 7 151 13 152
12 2 -1 -2 -29 -7 -62 -6 -32 -13 -111 -16 -175 l-7 -115 -291 -43 c-160 -24
-309 -47 -330 -53 -57 -14 -90 -39 -252 -193 -158 -150 -185 -165 -296 -165
-26 0 -48 -4 -48 -10 0 -11 119 -4 170 10 24 7 82 55 188 155 84 79 168 153
187 165 26 16 106 32 366 71 183 27 336 46 339 42 4 -4 10 -76 14 -159 5 -123
4 -153 -8 -163 -29 -24 -610 -115 -936 -147 -254 -24 -443 -15 -1045 51 -832
92 -1554 209 -2032 330 -201 51 -447 131 -463 151 -19 22 -2 51 114 190 l113
134 -13 91 c-7 54 -19 97 -28 108 -9 10 -58 31 -109 46 -50 15 -98 32 -104 38
-10 7 -13 55 -13 178 0 164 1 169 23 183 27 18 246 66 267 59 8 -3 56 -13 107
-24z m6029 -201 c-4 -62 -11 -140 -17 -173 -13 -77 -49 -192 -63 -204 -6 -4
-67 -21 -136 -35 -69 -15 -132 -29 -140 -32 -13 -3 -15 19 -12 163 2 92 -2
206 -7 252 -6 47 -10 86 -8 87 4 4 336 52 366 53 l24 1 -7 -112z m2294 -70
c-1 -7 -9 -47 -18 -88 l-18 -74 -39 -8 c-22 -4 -50 -10 -62 -13 -19 -4 -23 -1
-23 18 0 78 -149 134 -294 113 -74 -11 -53 -21 36 -18 143 6 224 -26 241 -95
6 -25 7 -25 -108 -47 -44 -8 -244 -47 -445 -86 -201 -39 -421 -82 -490 -95
-883 -172 -1059 -205 -1090 -205 -38 0 -262 -58 -324 -84 l-37 -15 3 150 c3
140 4 150 23 154 265 63 251 60 930 175 231 39 566 96 745 126 273 47 374 60
630 79 168 12 313 23 323 24 9 0 17 -5 17 -11z m-359 -298 c10 -34 12 -50 4
-50 -6 0 -73 9 -150 20 -77 11 -144 20 -150 21 -7 1 235 52 275 58 3 0 12 -22
21 -49z"/>
<path d="M10357 4731 c-40 -36 -79 -113 -106 -210 l-20 -72 42 -30 c55 -40 86
-36 110 13 22 45 38 328 19 328 -6 0 -26 -13 -45 -29z"/>
<path d="M10460 4708 c1 -94 19 -254 31 -282 7 -14 22 -29 35 -32 25 -6 70 14
96 43 17 18 17 24 2 79 -22 87 -60 164 -102 207 -50 51 -62 49 -62 -15z"/>
<path d="M10365 4280 c-18 -35 -19 -126 -2 -160 8 -17 21 -25 37 -25 20 0 27
8 38 41 10 31 18 41 30 38 25 -6 46 11 38 31 -4 12 -14 16 -31 12 -21 -3 -26
0 -31 22 -9 37 -32 71 -49 71 -8 0 -21 -13 -30 -30z"/>
<path d="M10411 3907 c-16 -20 -41 -83 -62 -156 -18 -61 -18 -66 -1 -84 49
-55 118 -58 166 -8 l28 29 -16 59 c-43 149 -80 201 -115 160z"/>
<path d="M6607 4566 c-128 -46 -240 -173 -324 -367 -35 -80 -35 -83 -17 -97
42 -32 146 -74 198 -79 98 -10 139 23 172 143 18 66 33 414 18 414 -5 -1 -26
-7 -47 -14z"/>
<path d="M6803 4413 c8 -233 30 -323 94 -373 42 -33 126 -25 226 22 42 21 80
43 83 51 8 21 -58 167 -110 246 -26 38 -70 91 -99 117 -49 44 -156 104 -186
104 -12 0 -13 -28 -8 -167z"/>
<path d="M6194 3803 c-9 -101 9 -283 41 -409 27 -105 121 -313 135 -298 15 16
78 178 105 270 35 116 38 220 8 285 -11 25 -45 70 -75 100 -51 51 -169 129
-194 129 -8 0 -15 -28 -20 -77z m268 -150 c27 -56 30 -153 8 -243 l-13 -55
-19 55 c-18 52 -48 219 -48 268 0 17 6 22 24 22 19 0 29 -10 48 -47z"/>
<path d="M6551 3854 c-39 -50 -41 -172 -4 -222 28 -38 76 -42 98 -8 58 88 25
256 -50 256 -13 0 -32 -11 -44 -26z"/>
<path d="M7155 3828 c-101 -67 -142 -109 -173 -176 -22 -49 -24 -64 -20 -146
6 -98 41 -220 102 -351 l32 -69 31 54 c36 62 75 159 97 240 50 176 63 500 21
500 -8 0 -48 -23 -90 -52z"/>
<path d="M6650 3261 c-46 -47 -160 -257 -160 -294 0 -34 114 -93 201 -103 31
-3 80 -1 111 5 64 14 161 68 166 93 6 31 -102 240 -153 296 -40 44 -52 52 -83
52 -30 0 -44 -8 -82 -49z m111 24 c41 -21 92 -94 79 -111 -20 -23 -78 -44
-124 -44 -58 0 -121 24 -110 42 27 48 73 102 94 114 31 17 26 17 61 -1z"/>
<path d="M1350 4220 c0 -5 23 -12 51 -16 l51 -7 -4 -93 c-2 -51 -7 -96 -10
-100 -4 -3 -28 -9 -54 -12 -32 -3 -42 -8 -32 -13 33 -18 216 -59 267 -59 l55
0 -26 28 c-25 26 -41 91 -51 207 -2 28 -4 30 -87 46 -128 25 -160 29 -160 19z
m178 -40 l49 -11 11 -88 c15 -109 15 -111 0 -106 -7 2 -39 9 -70 15 l-58 11 0
42 c0 46 11 147 16 147 2 0 25 -5 52 -10z"/>
<path d="M1978 4168 l-3 -33 -60 3 c-33 2 -106 10 -162 16 l-103 13 0 -38 c0
-37 1 -38 44 -44 25 -4 98 -12 163 -19 l118 -11 3 -130 c2 -88 7 -132 15 -137
7 -4 35 -8 62 -8 28 0 73 -3 101 -6 l51 -6 32 -137 c44 -191 45 -201 21 -230
-26 -30 -34 -22 -22 22 11 39 8 47 -18 47 -19 0 -110 -104 -110 -126 0 -27 44
-53 114 -68 105 -23 339 -60 611 -96 290 -39 299 -38 370 46 26 30 45 57 42
60 -8 9 -848 107 -854 100 -4 -3 -4 -8 -2 -10 2 -2 189 -27 414 -56 226 -29
412 -54 414 -56 2 -2 2 -6 0 -7 -5 -5 -818 101 -838 108 -11 4 -13 28 -9 118
3 95 8 121 29 162 13 27 32 53 41 59 20 12 788 -43 788 -57 0 -4 -19 -6 -42
-3 -24 3 -198 18 -386 32 -249 19 -347 23 -355 15 -6 -6 -9 -12 -6 -14 2 -2
162 -18 354 -36 435 -41 445 -42 445 -52 0 -5 -6 -7 -12 -4 -7 2 -190 21 -406
41 -299 29 -395 35 -404 26 -8 -8 -8 -15 -2 -20 5 -5 182 -23 394 -41 212 -18
399 -37 415 -42 35 -11 60 -12 -448 32 -279 25 -370 30 -379 21 -6 -6 -9 -14
-6 -18 3 -3 190 -21 415 -40 389 -33 471 -42 448 -50 -5 -2 -201 14 -435 34
-369 33 -447 36 -428 17 2 -2 201 -27 442 -54 242 -28 441 -53 444 -56 9 -9
-23 -6 -458 44 -234 27 -428 47 -432 44 -13 -7 -9 -33 5 -33 32 0 890 -110
895 -115 3 -3 -2 -5 -10 -5 -18 0 -801 96 -860 106 -30 4 -38 2 -38 -9 0 -20
-16 -17 465 -82 226 -31 415 -58 420 -60 34 -12 -88 1 -442 50 -221 30 -411
55 -423 55 -27 0 -22 -24 6 -27 522 -60 814 -96 831 -103 18 -7 26 -4 43 17
26 33 25 40 -14 218 l-33 149 -34 7 c-19 4 -82 10 -141 14 l-108 7 0 122 0
122 88 -8 c48 -3 211 -10 363 -14 l277 -7 3 41 4 40 -175 7 c-96 3 -245 10
-330 16 -85 5 -172 9 -192 9 l-38 0 0 60 0 60 -60 0 c-69 0 -694 27 -822 35
l-87 6 -3 -33z m487 -8 c226 -11 422 -20 438 -20 l27 0 0 -205 c0 -159 -3
-205 -13 -205 -7 0 -152 11 -322 25 -171 13 -376 30 -457 36 l-148 12 0 188 0
189 33 0 c17 0 217 -9 442 -20z"/>
<path d="M5738 4019 c-120 -10 -486 -27 -893 -40 -187 -6 -344 -14 -348 -18
-5 -5 -7 -24 -5 -42 l3 -34 240 1 c132 1 328 7 435 13 438 27 498 31 570 37
l76 6 16 44 c10 29 12 44 4 43 -6 -1 -50 -5 -98 -10z"/>
<path d="M3730 4001 c0 -5 36 -12 80 -16 l80 -7 0 -118 0 -118 -71 -10 c-76
-11 -91 -18 -70 -31 16 -10 386 -31 591 -34 152 -2 155 -2 158 19 3 20 -3 23
-57 29 -34 4 -64 11 -67 17 -3 5 -3 59 1 119 l7 109 39 0 c21 0 39 5 39 10 0
6 -56 10 -147 10 -137 0 -406 13 -530 25 -29 3 -53 1 -53 -4z m512 -41 l118 0
0 -62 c0 -35 -3 -87 -6 -115 l-7 -53 -82 0 c-45 0 -143 3 -218 7 l-137 6 0
115 0 115 107 -6 c58 -4 159 -7 225 -7z"/>
<path d="M3320 3321 c0 -11 15 -14 190 -40 435 -64 1570 -130 1570 -91 0 6
-59 10 -157 10 -308 0 -866 33 -1193 70 -174 20 -359 47 -392 56 -10 3 -18 1
-18 -5z"/>
</g>
</svg>
